<svg preserveAspectRatio="none" width="100%" height="100%" overflow="visible" style="display: block;" viewBox="0 0 1280 153.473" fill="none" xmlns="http://www.w3.org/2000/svg">
<g id="Realtor Empress">
<path id="Vector" d="M1246.18 123.651C1221.63 123.651 1208.17 113.286 1208.17 92.3746V92.0109H1220.9V94.193C1220.9 106.558 1225.99 112.559 1246.36 112.559C1263.09 112.559 1267.45 107.831 1267.45 98.739C1267.45 89.647 1261.82 86.3739 1248.18 83.8281L1233.27 81.2823C1218.72 78.5547 1208.17 71.8267 1208.17 56.0066C1208.17 40.5502 1221.27 30.1853 1242.54 30.1853C1263.09 30.1853 1278.18 40.732 1278.18 60.9163V61.8255H1265.63V60.3707C1265.63 49.6422 1261.45 41.4594 1242.18 41.4594C1225.81 41.4594 1220.72 46.7328 1220.72 55.8248C1220.72 64.9167 1225.27 68.008 1238.72 70.5538L1254 73.4632C1269.64 76.3727 1280 83.2826 1280 98.1935C1280 114.195 1266.91 123.651 1246.18 123.651Z" fill="var(--fill-0, white)"/>
<path id="Vector_2" d="M1158.99 123.651C1134.44 123.651 1120.98 113.286 1120.98 92.3746V92.0109H1133.71V94.193C1133.71 106.558 1138.8 112.559 1159.17 112.559C1175.9 112.559 1180.26 107.831 1180.26 98.739C1180.26 89.647 1174.62 86.3739 1160.99 83.8281L1146.08 81.2823C1131.53 78.5547 1120.98 71.8267 1120.98 56.0066C1120.98 40.5502 1134.07 30.1853 1155.35 30.1853C1175.9 30.1853 1190.99 40.732 1190.99 60.9163V61.8255H1178.44V60.3707C1178.44 49.6422 1174.26 41.4594 1154.99 41.4594C1138.62 41.4594 1133.53 46.7328 1133.53 55.8248C1133.53 64.9167 1138.08 68.008 1151.53 70.5538L1166.81 73.4632C1182.44 76.3727 1192.81 83.2826 1192.81 98.1935C1192.81 114.195 1179.72 123.651 1158.99 123.651Z" fill="var(--fill-0, white)"/>
<path id="Vector_3" d="M1065.63 123.651C1037.99 123.651 1023.62 104.194 1023.62 76.9182C1023.62 49.6422 1039.81 30.1853 1065.45 30.1853C1087.08 30.1853 1104.9 43.2778 1104.9 69.8264C1104.9 74.0087 1104.54 78.0092 1104 80.555H1035.99C1036.53 100.376 1044.35 112.013 1065.81 112.013C1083.99 112.013 1091.27 103.83 1091.27 92.9201V91.8291H1104.18V93.1019C1104.18 110.377 1088.54 123.651 1065.63 123.651ZM1065.08 41.4594C1045.08 41.4594 1037.08 52.9153 1035.99 71.0993H1092.54C1093.27 49.824 1082.72 41.4594 1065.08 41.4594Z" fill="var(--fill-0, white)"/>
<path id="Vector_4" d="M963.815 121.833H950.723V30.9127H962.543V46.0054H963.452C966.361 37.6408 975.09 30.1853 988.364 30.1853C1006.91 30.1853 1014 43.4596 1014 58.916V64.0075H1000.91V60.9163C1000.91 46.9146 996.547 41.4594 983.636 41.4594C969.634 41.4594 963.815 47.8238 963.815 62.371V121.833Z" fill="var(--fill-0, white)"/>
<path id="Vector_5" d="M864.727 153.473H851.635V32.0037H863.454V49.4604H864C868 38.0044 878.729 30.1853 895.64 30.1853C920.916 30.1853 934.917 48.5511 934.917 77.1C934.917 105.285 921.643 123.651 897.095 123.651C879.82 123.651 868.728 114.559 864.727 104.74V153.473ZM864.727 84.7373C864.727 103.103 875.637 112.377 893.458 112.377C910.914 112.377 921.825 104.376 921.825 77.1C921.825 49.4603 911.096 41.4594 893.458 41.4594C875.637 41.4594 864.727 50.7332 864.727 69.2809V84.7373Z" fill="var(--fill-0, white)"/>
<path id="Vector_6" d="M705.084 121.833H691.992V32.0037H703.811V50.5514H704.357C707.812 41.0957 717.268 30.1853 735.815 30.1853C752.181 30.1853 762 38.0044 766.001 50.7332H766.546C770.183 41.0957 779.457 30.1853 798.005 30.1853C821.098 30.1853 831.645 45.0962 831.645 66.5533V121.833H818.734V69.6446C818.734 50.1877 812.188 41.6412 794.004 41.6412C776.911 41.6412 768.365 50.0059 768.365 70.0083V121.833H755.454V69.6446C755.454 50.1877 749.09 41.6412 730.906 41.6412C713.813 41.6412 705.084 50.0059 705.084 70.0083V121.833Z" fill="var(--fill-0, white)"/>
<path id="Vector_7" d="M674.588 121.833H592.578V0.000122961H674.588V11.8197H605.489V54.5521H671.86V66.5535H605.489V110.013H674.588V121.833Z" fill="var(--fill-0, white)"/>
<path id="Vector_8" d="M492.701 121.833H479.608V30.9127H491.428V46.0054H492.337C495.247 37.6408 503.975 30.1853 517.249 30.1853C535.797 30.1853 542.889 43.4596 542.889 58.916V64.0075H529.796V60.9163C529.796 46.9146 525.432 41.4594 512.522 41.4594C498.52 41.4594 492.701 47.8238 492.701 62.371V121.833Z" fill="var(--fill-0, white)"/>
<path id="Vector_9" d="M420.88 123.651C394.513 123.651 377.238 104.194 377.238 76.9182C377.238 49.6422 394.513 30.1853 420.88 30.1853C447.065 30.1853 463.794 49.6422 463.794 76.9182C463.794 104.194 447.065 123.651 420.88 123.651ZM420.88 112.013C442.519 112.013 451.065 99.2845 451.065 76.9182C451.065 54.5519 442.519 42.0049 420.88 42.0049C398.877 42.0049 390.149 54.5519 390.149 76.9182C390.149 99.2845 398.877 112.013 420.88 112.013Z" fill="var(--fill-0, white)"/>
<path id="Vector_10" d="M356.625 122.014C340.078 122.014 330.44 115.468 330.44 96.3749V43.2776H315.347V32.0035H330.622L333.713 9.0917H343.533V32.0035H371.9V43.2776H343.533V97.1022C343.533 107.649 348.442 110.013 360.08 110.013H371.9V120.56C368.808 121.105 363.171 122.014 356.625 122.014Z" fill="var(--fill-0, white)"/>
<path id="Vector_11" d="M303.936 121.833H290.843V0.000122961H303.936V121.833Z" fill="var(--fill-0, white)"/>
<path id="Vector_12" d="M224.294 123.651C207.928 123.651 195.563 115.286 195.563 100.194C195.563 84.5555 207.201 77.6455 226.84 74.9179L258.48 70.5538V64.0075C258.48 48.1875 251.752 41.8231 234.841 41.8231C218.475 41.8231 210.838 48.1875 210.838 62.5528V65.2804H198.291V63.8257C198.291 45.0962 212.656 30.1853 235.932 30.1853C259.935 30.1853 270.845 45.6417 270.845 65.6441V121.833H259.026V105.285L258.116 105.103C252.843 115.468 241.387 123.651 224.294 123.651ZM208.292 99.2845C208.292 108.558 214.111 112.741 227.931 112.741C243.387 112.741 258.48 104.74 258.48 83.4644V80.3731L227.931 84.7373C213.566 86.7375 208.292 89.647 208.292 99.2845Z" fill="var(--fill-0, white)"/>
<path id="Vector_13" d="M142.577 123.651C114.937 123.651 100.572 104.194 100.572 76.9182C100.572 49.6422 116.755 30.1853 142.395 30.1853C164.034 30.1853 181.854 43.2778 181.854 69.8264C181.854 74.0087 181.49 78.0092 180.945 80.555H112.937C113.482 100.376 121.301 112.013 142.759 112.013C160.943 112.013 168.216 103.83 168.216 92.9201V91.8291H181.127V93.1019C181.127 110.377 165.489 123.651 142.577 123.651ZM142.031 41.4594C122.029 41.4594 114.028 52.9153 112.937 71.0993H169.489C170.216 49.824 159.67 41.4594 142.031 41.4594Z" fill="var(--fill-0, white)"/>
<path id="Vector_14" d="M12.9106 121.833H0V0.000122961H49.6423C74.7362 0.000122961 91.8292 12.9108 91.8292 35.4589C91.8292 56.1887 77.4638 68.7356 55.643 69.2811V70.3722C63.2803 72.7361 68.3718 77.8276 72.5541 85.283L93.4657 121.833H78.373L58.7343 87.647C52.7336 77.1003 46.3692 72.1906 30.5491 72.1906H12.9106V121.833ZM12.9106 11.8197V61.0983H51.6425C70.3721 61.0983 78.7367 53.6429 78.7367 36.3681C78.7367 19.6388 70.3721 11.8197 51.6425 11.8197H12.9106Z" fill="var(--fill-0, white)"/>
</g>
</svg>
