<svg preserveAspectRatio="none" width="100%" height="100%" overflow="visible" style="display: block;" viewBox="0 0 166.805 20" fill="none" xmlns="http://www.w3.org/2000/svg">
<g id="Realtor Empress">
<path id="Vector" d="M162.397 16.1137C159.198 16.1137 157.445 14.763 157.445 12.0379V11.9905H159.103V12.2749C159.103 13.8863 159.767 14.6682 162.421 14.6682C164.601 14.6682 165.17 14.0521 165.17 12.8673C165.17 11.6825 164.435 11.2559 162.658 10.9242L160.715 10.5924C158.819 10.237 157.445 9.3602 157.445 7.29859C157.445 5.28437 159.151 3.93366 161.923 3.93366C164.601 3.93366 166.568 5.30807 166.568 7.9384V8.05688H164.933V7.86731C164.933 6.4692 164.388 5.40285 161.876 5.40285C159.743 5.40285 159.08 6.09006 159.08 7.27489C159.08 8.45972 159.672 8.86257 161.426 9.19432L163.416 9.57347C165.454 9.95261 166.805 10.8531 166.805 12.7962C166.805 14.8815 165.099 16.1137 162.397 16.1137Z" fill="var(--fill-0, white)"/>
<path id="Vector_2" d="M151.035 16.1137C147.836 16.1137 146.082 14.763 146.082 12.0379V11.9905H147.741V12.2749C147.741 13.8863 148.405 14.6682 151.059 14.6682C153.239 14.6682 153.808 14.0521 153.808 12.8673C153.808 11.6825 153.073 11.2559 151.296 10.9242L149.353 10.5924C147.457 10.237 146.082 9.3602 146.082 7.29859C146.082 5.28437 147.789 3.93366 150.561 3.93366C153.239 3.93366 155.206 5.30807 155.206 7.9384V8.05688H153.571V7.86731C153.571 6.4692 153.026 5.40285 150.514 5.40285C148.381 5.40285 147.717 6.09006 147.717 7.27489C147.717 8.45972 148.31 8.86257 150.063 9.19432L152.054 9.57347C154.092 9.95261 155.443 10.8531 155.443 12.7962C155.443 14.8815 153.736 16.1137 151.035 16.1137Z" fill="var(--fill-0, white)"/>
<path id="Vector_3" d="M138.869 16.1137C135.267 16.1137 133.395 13.5782 133.395 10.0237C133.395 6.4692 135.504 3.93366 138.845 3.93366C141.665 3.93366 143.987 5.63982 143.987 9.09953C143.987 9.64456 143.94 10.1659 143.869 10.4976H135.006C135.077 13.0806 136.096 14.5972 138.892 14.5972C141.262 14.5972 142.21 13.5308 142.21 12.109V11.9668H143.892V12.1327C143.892 14.3839 141.855 16.1137 138.869 16.1137ZM138.798 5.40285C136.191 5.40285 135.148 6.89574 135.006 9.26541H142.376C142.471 6.4929 141.096 5.40285 138.798 5.40285Z" fill="var(--fill-0, white)"/>
<path id="Vector_4" d="M125.601 15.8768H123.895V4.02845H125.435V5.99527H125.554C125.933 4.90522 127.07 3.93366 128.8 3.93366C131.217 3.93366 132.142 5.66352 132.142 7.67773V8.34124H130.435V7.9384C130.435 6.11375 129.867 5.40285 128.184 5.40285C126.36 5.40285 125.601 6.23224 125.601 8.12797V15.8768Z" fill="var(--fill-0, white)"/>
<path id="Vector_5" d="M112.688 20H110.982V4.17063H112.522V6.44551H112.593C113.115 4.95262 114.513 3.93366 116.716 3.93366C120.01 3.93366 121.835 6.32702 121.835 10.0474C121.835 13.7204 120.105 16.1137 116.906 16.1137C114.655 16.1137 113.209 14.9289 112.688 13.6493V20ZM112.688 11.0427C112.688 13.436 114.11 14.6446 116.432 14.6446C118.707 14.6446 120.129 13.6019 120.129 10.0474C120.129 6.44551 118.731 5.40285 116.432 5.40285C114.11 5.40285 112.688 6.61138 112.688 9.02844V11.0427Z" fill="var(--fill-0, white)"/>
<path id="Vector_6" d="M91.8842 15.8768H90.178V4.17063H91.7183V6.58769H91.7894C92.2396 5.35546 93.4719 3.93366 95.8889 3.93366C98.0216 3.93366 99.3013 4.95262 99.8226 6.61138H99.8937C100.368 5.35546 101.576 3.93366 103.993 3.93366C107.003 3.93366 108.377 5.87679 108.377 8.67299V15.8768H106.695V9.07584C106.695 6.5403 105.842 5.42655 103.472 5.42655C101.244 5.42655 100.131 6.5166 100.131 9.12323V15.8768H98.4482V9.07584C98.4482 6.5403 97.6188 5.42655 95.2491 5.42655C93.0216 5.42655 91.8842 6.5166 91.8842 9.12323V15.8768Z" fill="var(--fill-0, white)"/>
<path id="Vector_7" d="M87.9099 15.8768H77.2227V0H87.9099V1.54028H78.9052V7.109H87.5545V8.67298H78.9052V14.3365H87.9099V15.8768Z" fill="var(--fill-0, white)"/>
<path id="Vector_8" d="M64.2072 15.8768H62.501V4.02845H64.0413V5.99527H64.1598C64.5389 4.90522 65.6764 3.93366 67.4063 3.93366C69.8233 3.93366 70.7475 5.66352 70.7475 7.67773V8.34124H69.0413V7.9384C69.0413 6.11375 68.4726 5.40285 66.7901 5.40285C64.9655 5.40285 64.2072 6.23224 64.2072 8.12797V15.8768Z" fill="var(--fill-0, white)"/>
<path id="Vector_9" d="M54.8476 16.1137C51.4116 16.1137 49.1604 13.5782 49.1604 10.0237C49.1604 6.4692 51.4116 3.93366 54.8476 3.93366C58.2599 3.93366 60.44 6.4692 60.44 10.0237C60.44 13.5782 58.2599 16.1137 54.8476 16.1137ZM54.8476 14.5972C57.6675 14.5972 58.7812 12.9384 58.7812 10.0237C58.7812 7.10902 57.6675 5.47395 54.8476 5.47395C51.9803 5.47395 50.8428 7.10902 50.8428 10.0237C50.8428 12.9384 51.9803 14.5972 54.8476 14.5972Z" fill="var(--fill-0, white)"/>
<path id="Vector_10" d="M46.4741 15.9004C44.3177 15.9004 43.0618 15.0473 43.0618 12.5591V5.63971H41.095V4.17052H43.0855L43.4883 1.18474H44.768V4.17052H48.4647V5.63971H44.768V12.6539C44.768 14.0283 45.4078 14.3364 46.9244 14.3364H48.4647V15.7108C48.0618 15.7819 47.3272 15.9004 46.4741 15.9004Z" fill="var(--fill-0, white)"/>
<path id="Vector_11" d="M39.6078 15.8768H37.9016V0H39.6078V15.8768Z" fill="var(--fill-0, white)"/>
<path id="Vector_12" d="M29.2289 16.1137C27.0962 16.1137 25.4848 15.0237 25.4848 13.0569C25.4848 11.019 27.0014 10.1185 29.5607 9.76304L33.6839 9.19432V8.34124C33.6839 6.27963 32.8071 5.45025 30.6033 5.45025C28.4706 5.45025 27.4753 6.27963 27.4753 8.15167V8.50712H25.8403V8.31754C25.8403 5.87679 27.7123 3.93366 30.7455 3.93366C33.8735 3.93366 35.2953 5.94788 35.2953 8.55451V15.8768H33.755V13.7204L33.6365 13.6967C32.9493 15.0474 31.4564 16.1137 29.2289 16.1137ZM27.1436 12.9384C27.1436 14.1469 27.9019 14.6919 29.7028 14.6919C31.7171 14.6919 33.6839 13.6493 33.6839 10.8768V10.4739L29.7028 11.0427C27.8308 11.3033 27.1436 11.6825 27.1436 12.9384Z" fill="var(--fill-0, white)"/>
<path id="Vector_13" d="M18.5804 16.1137C14.9785 16.1137 13.1065 13.5782 13.1065 10.0237C13.1065 6.4692 15.2155 3.93366 18.5567 3.93366C21.3766 3.93366 23.6989 5.63982 23.6989 9.09953C23.6989 9.64456 23.6515 10.1659 23.5804 10.4976H14.7179C14.789 13.0806 15.8079 14.5972 18.6041 14.5972C20.9738 14.5972 21.9217 13.5308 21.9217 12.109V11.9668H23.6041V12.1327C23.6041 14.3839 21.5662 16.1137 18.5804 16.1137ZM18.5093 5.40285C15.9027 5.40285 14.86 6.89574 14.7179 9.26541H22.0875C22.1823 6.4929 20.8079 5.40285 18.5093 5.40285Z" fill="var(--fill-0, white)"/>
<path id="Vector_14" d="M1.68247 15.8768H0V0H6.4692C9.73935 0 11.9668 1.68246 11.9668 4.62085C11.9668 7.32227 10.0948 8.95734 7.2512 9.02843V9.17061C8.24646 9.47867 8.90997 10.1422 9.45499 11.1137L12.1801 15.8768H10.2133L7.65404 11.4218C6.87205 10.0474 6.04266 9.40757 3.98105 9.40757H1.68247V15.8768ZM1.68247 1.54028V7.96208H6.72987C9.17063 7.96208 10.2607 6.99052 10.2607 4.73933C10.2607 2.55924 9.17063 1.54028 6.72987 1.54028H1.68247Z" fill="var(--fill-0, white)"/>
</g>
</svg>
